# xmcd CD database file
#
# Track frame offsets:
#	150
#	10110
#	25360
#	38377
#	57002
#	75592
#	91485
#	109860
#	127490
#	139687
#	153865
#	167442
#	192211
#	208719
#	231602
#
# Disc length: 3285 seconds
#
# Revision: 2
# Processed by: cddbd v1.5.2PL0 Copyright (c) Steve Scherf et al.
# Submitted via: CDex 1.70beta2
#
DISCID=c00cd30f
DTITLE=Western Circus - cowboy yin-young
DYEAR=2008
DGENRE=Country
TTITLE0=Poor, lonesome cowboy 2
TTITLE1=Eas-West
TTITLE2=Pony-Express
TTITLE3=Poo, lonesome Cowboy 1
TTITLE4=Write it down
TTITLE5=Der singende Draht
TTITLE6=Das Greenhorn
TTITLE7=Western Circus 1
TTITLE8=Daisy town
TTITLE9=Luther and Johnny
TTITLE10=Calamity Jane
TTITLE11=El Paso
TTITLE12=Auf nach Oklahoma
TTITLE13=Western Circus 2
TTITLE14=Am Mississippi
EXTD=YEAR: 2008
EXTT0=
EXTT1=
EXTT2=
EXTT3=
EXTT4=
EXTT5=
EXTT6=
EXTT7=
EXTT8=
EXTT9=
EXTT10=
EXTT11=
EXTT12=
EXTT13=
EXTT14=
PLAYORDER=
